<?xml version="1.0" standalone="no"?>
<!DOCTYPE svg PUBLIC "-//W3C//DTD SVG 20010904//EN"
 "http://www.w3.org/TR/2001/REC-SVG-20010904/DTD/svg10.dtd">
<svg version="1.0" xmlns="http://www.w3.org/2000/svg"
 width="200.000000pt" height="200.000000pt" viewBox="0 0 200.000000 200.000000"
 preserveAspectRatio="xMidYMid meet">

<g transform="translate(0.000000,200.000000) scale(0.100000,-0.100000)"
fill="#000000" stroke="none">
<path d="M0 1000 l0 -1001 52 3 c49 3 53 5 56 31 4 32 18 35 27 6 5 -14 2 -25
-6 -30 -10 -6 -8 -9 9 -9 18 0 21 4 18 23 -14 68 -15 98 -4 121 l12 27 23 -27
c15 -18 29 -25 43 -21 17 4 20 0 20 -32 0 -25 6 -40 20 -49 18 -11 20 -10 20
20 0 18 4 48 9 66 6 20 6 32 0 32 -18 0 -9 18 12 23 20 5 20 7 4 37 -13 25
-14 38 -6 62 6 17 9 34 6 38 -9 14 33 86 57 97 41 20 120 42 239 64 l116 23 1
29 c1 38 10 46 28 23 11 -16 16 -17 29 -6 14 12 15 10 10 -13 -6 -21 -4 -27 9
-27 9 0 16 5 16 10 0 6 6 5 14 -2 13 -11 13 -15 -2 -25 -8 -7 -24 -13 -33 -13
-10 0 -34 -15 -53 -34 -33 -31 -35 -35 -25 -64 7 -19 28 -42 54 -59 36 -23 44
-35 48 -68 5 -31 2 -43 -11 -54 -16 -13 -16 -13 1 -7 10 3 24 6 30 6 7 0 30
12 52 26 29 18 33 23 15 18 -14 -4 -28 -11 -31 -15 -13 -21 -41 20 -48 71 -11
76 -28 113 -46 106 -9 -3 -15 0 -15 8 0 17 70 61 109 69 36 8 91 43 91 58 0 6
-17 9 -37 7 -35 -3 -38 -1 -41 25 -3 21 1 27 17 27 11 0 26 9 34 20 8 11 17
17 22 12 4 -4 5 2 0 13 -4 11 -10 32 -13 48 -2 15 -8 30 -13 33 -15 9 -10 71
6 84 8 7 15 28 15 48 0 19 3 32 7 29 3 -4 12 -2 20 5 11 9 15 7 20 -11 4 -17
11 -22 29 -18 37 7 51 -8 30 -32 -14 -15 -23 -18 -36 -11 -13 7 -21 5 -30 -5
-7 -8 -9 -15 -4 -15 4 0 3 -5 -3 -11 -13 -13 -6 -42 8 -34 4 3 13 -4 19 -15 6
-11 7 -20 3 -20 -4 0 -2 -4 5 -9 11 -7 11 -16 1 -50 -7 -22 -16 -41 -20 -41
-5 0 -6 -7 -3 -15 4 -10 11 -12 22 -6 10 4 23 6 31 3 8 -3 11 0 7 7 -7 10 15
41 28 41 7 0 -4 -60 -15 -81 -13 -26 14 -44 40 -27 18 11 28 45 22 80 0 4 10
23 23 42 25 38 26 99 0 89 -15 -6 -18 6 -8 31 3 9 10 14 15 11 9 -6 -9 54 -22
71 -5 6 -6 13 -3 16 3 3 -9 12 -25 19 -25 11 -31 20 -31 46 0 20 5 33 13 33 9
0 9 2 -1 9 -16 10 -62 2 -62 -10 0 -5 7 -9 15 -9 11 0 15 -11 15 -40 0 -38 -1
-40 -21 -30 -12 7 -18 17 -15 27 5 11 -2 14 -32 13 -61 -3 -63 -2 -56 24 4 19
1 26 -17 31 -12 4 -32 18 -45 32 -20 22 -23 22 -28 6 -14 -48 -17 -91 -7 -97
6 -4 11 -20 11 -37 0 -25 -4 -29 -28 -29 -32 0 -75 -27 -69 -43 3 -7 -6 -27
-20 -44 -39 -54 -4 -38 54 23 53 56 63 62 42 22 -6 -12 -13 -43 -15 -69 -4
-60 -18 -87 -51 -100 -54 -20 -89 56 -78 167 8 73 -5 85 -23 22 -18 -66 -25
-73 -59 -59 -15 7 -51 34 -79 60 l-52 48 61 54 c34 30 68 63 76 73 16 20 44
46 96 89 17 14 27 29 23 33 -15 15 -83 -42 -232 -194 -50 -52 -120 -114 -156
-140 -116 -83 -194 -148 -252 -211 l-58 -62 0 485 c0 533 -5 491 56 487 11 -1
135 9 275 23 359 36 406 39 422 33 11 -4 11 -21 -4 -108 -17 -98 -17 -263 0
-273 3 -2 30 1 58 7 44 9 58 8 88 -6 19 -9 35 -21 35 -27 0 -5 6 -10 13 -10 7
0 28 -14 47 -31 24 -22 35 -28 38 -18 11 42 13 43 25 19 18 -35 53 -50 122
-49 88 0 229 23 256 42 29 21 55 21 91 3 16 -8 45 -17 65 -21 83 -13 103 -26
139 -97 19 -38 24 -63 24 -128 0 -44 -5 -88 -10 -98 -6 -9 -26 -64 -44 -122
-19 -58 -42 -120 -52 -139 -15 -30 -20 -33 -48 -27 -17 3 -60 12 -96 19 -51
10 -66 17 -68 33 -2 10 -10 33 -17 50 -13 28 -11 66 5 89 4 6 10 19 14 29 5
16 4 17 -9 6 -12 -10 -15 -10 -15 1 -1 8 -7 -4 -15 -25 -8 -22 -15 -78 -16
-125 l-2 -86 48 -3 c42 -3 54 -9 89 -46 23 -24 50 -49 61 -55 17 -10 13 -11
-20 -6 -22 4 -42 10 -45 13 -3 4 -11 7 -17 8 -7 1 -17 2 -23 2 -12 2 -14 42
-2 42 5 0 9 7 9 16 0 13 -8 15 -35 10 -23 -3 -57 3 -101 18 -36 13 -87 26
-113 30 -46 7 -50 6 -104 -38 -31 -26 -62 -49 -69 -54 -6 -4 -15 -35 -18 -70
l-5 -63 44 -11 c41 -11 60 -28 32 -28 -7 0 -43 -12 -80 -26 -55 -22 -67 -31
-70 -51 -2 -19 -13 -28 -43 -39 -51 -18 -63 -17 -81 1 -18 18 -44 20 -44 3 0
-9 -3 -9 -12 0 -7 7 -22 12 -34 12 -12 0 -24 5 -26 12 -3 7 -9 8 -19 2 -8 -5
-32 -9 -54 -9 -38 0 -40 -1 -43 -35 -2 -19 -8 -39 -13 -44 -15 -16 -11 -66 6
-66 8 0 12 6 9 13 -3 8 5 25 16 38 l21 24 -5 -27 c-6 -27 6 -38 19 -17 4 6 20
7 38 4 47 -10 55 -23 12 -21 -20 1 -39 -2 -41 -6 -3 -5 288 -8 645 -8 l651 0
0 1000 0 1000 -404 0 -403 0 -7 -62 c-3 -34 -11 -67 -16 -72 -11 -11 -13 0
-10 82 l1 52 -70 0 c-81 0 -75 13 -70 -130 5 -170 5 -175 -14 -178 -16 -3 -17
10 -17 152 l0 156 -81 0 -81 0 7 -161 c6 -135 5 -161 -6 -157 -10 3 -14 25
-14 79 0 41 -1 111 -3 157 l-2 82 -70 0 -69 0 4 -47 c3 -27 7 -101 9 -165 4
-99 3 -118 -9 -118 -12 0 -15 19 -15 104 0 56 -3 131 -6 165 l-7 61 -73 0 -74
0 0 -27 c0 -16 5 -90 11 -167 5 -76 8 -141 5 -144 -3 -2 -13 1 -22 9 -11 9
-14 22 -10 43 4 17 3 88 0 158 l-7 128 -89 0 -90 0 6 -27 c9 -46 29 -313 24
-319 -3 -2 -13 -1 -23 2 -14 6 -16 15 -11 48 3 23 0 98 -6 169 l-11 127 -99 0
c-90 0 -99 -2 -94 -17 2 -10 10 -81 17 -158 10 -122 26 -215 28 -164 1 20 104
34 134 17 29 -15 10 -23 -95 -41 -97 -17 -120 -16 -126 2 -3 9 2 11 16 6 32
-10 34 20 14 195 l-17 155 -28 3 -27 3 0 -1001z m615 690 c3 -5 -1 -10 -10
-10 -9 0 -13 5 -10 10 3 6 8 10 10 10 2 0 7 -4 10 -10z m-203 -18 c-27 -13
-35 -14 -41 -3 -7 11 -10 11 -14 0 -4 -10 -6 -9 -6 3 -1 14 8 17 47 16 l47 -1
-33 -15z m161 11 c-7 -2 -19 -2 -25 0 -7 3 -2 5 12 5 14 0 19 -2 13 -5z m727
-47 c0 -3 -4 -8 -10 -11 -5 -3 -10 -1 -10 4 0 6 5 11 10 11 6 0 10 -2 10 -4z
m-590 -26 c-19 -12 -50 -13 -50 -1 0 9 50 20 60 13 2 -2 -2 -7 -10 -12z m-577
-18 c-22 -60 -79 -92 -87 -47 -10 53 -4 61 46 62 40 1 46 -1 41 -15z m50 11
c-7 -2 -19 -2 -25 0 -7 3 -2 5 12 5 14 0 19 -2 13 -5z m717 -644 c0 -9 -6 -21
-12 -27 -10 -8 -13 1 -15 36 -2 43 -1 45 12 28 8 -11 15 -27 15 -37z m37 -106
c-3 -3 -11 -2 -17 2 -9 6 -9 10 1 16 14 8 27 -7 16 -18z m-47 -134 c0 -11 -9
-34 -21 -50 -11 -16 -18 -29 -14 -29 3 0 1 -9 -5 -20 -9 -16 -8 -20 5 -20 17
0 20 -27 6 -49 -8 -13 -12 -13 -26 -1 -16 13 -16 35 0 73 4 9 3 17 -3 17 -5 0
-12 -9 -15 -21 -4 -13 -12 -20 -24 -17 -28 5 -22 41 10 56 15 7 27 18 27 25 0
7 4 6 10 -3 9 -13 11 -13 20 0 5 8 10 25 10 38 0 12 5 22 10 22 6 0 10 -9 10
-21z m270 -14 c0 -5 -5 -3 -10 5 -5 8 -10 20 -10 25 0 6 5 3 10 -5 5 -8 10
-19 10 -25z m-243 -37 c-3 -7 -5 -2 -5 12 0 14 2 19 5 13 2 -7 2 -19 0 -25z
m-351 -147 c-6 -10 -35 -19 -111 -37 -48 -11 -22 6 47 31 64 23 75 24 64 6z
m1082 -212 c1 -17 9 -46 17 -65 8 -20 10 -36 4 -39 -5 -4 -9 0 -10 7 0 9 -2
10 -5 1 -3 -7 -12 -9 -20 -6 -8 3 -14 0 -14 -5 0 -14 -78 -8 -93 7 -9 9 -9 14
1 20 17 10 12 53 -7 59 -8 3 -11 0 -7 -6 3 -6 2 -13 -3 -16 -5 -3 -11 1 -15 9
-3 8 -13 15 -23 15 -22 0 -4 20 23 25 11 2 19 4 19 5 0 6 43 8 55 3 8 -3 18
-7 22 -7 3 -1 10 -4 14 -8 12 -13 21 -9 27 12 7 28 12 25 15 -11z m-953 -189
c8 -13 -5 -13 -25 0 -13 8 -13 10 2 10 9 0 20 -4 23 -10z"/>
<path d="M1134 965 c11 -8 28 -13 38 -9 10 3 31 -4 47 -15 35 -25 57 -27 65
-6 7 20 -21 31 -104 39 -60 6 -63 6 -46 -9z"/>
<path d="M1320 925 c0 -27 6 -30 29 -16 17 11 7 41 -14 41 -9 0 -15 -9 -15
-25z"/>
<path d="M690 920 c0 -5 5 -10 10 -10 6 0 10 5 10 10 0 6 -4 10 -10 10 -5 0
-10 -4 -10 -10z"/>
<path d="M1465 890 c-34 -55 -26 -63 9 -9 15 22 25 43 22 46 -2 3 -16 -14 -31
-37z"/>
<path d="M1199 869 c19 -17 20 -23 8 -32 -9 -8 -11 -21 -6 -42 3 -16 7 -24 8
-17 1 16 24 11 32 -8 4 -8 2 -23 -3 -33 -5 -9 -6 -33 -2 -52 4 -21 1 -48 -6
-65 -6 -16 -9 -34 -5 -39 9 -16 55 17 55 40 0 10 4 20 9 24 6 3 6 18 0 38 -11
39 -11 39 0 33 10 -7 24 30 21 59 0 11 -10 32 -21 48 -11 15 -15 27 -9 27 5 0
10 4 10 8 0 11 -60 32 -90 32 l-24 0 23 -21z m101 -119 c0 -5 -2 -10 -4 -10
-3 0 -8 5 -11 10 -3 6 -1 10 4 10 6 0 11 -4 11 -10z"/>
<path d="M985 500 c-23 -25 -10 -40 26 -33 24 4 25 7 15 29 -13 29 -18 30 -41
4z"/>
<path d="M1125 508 c-11 -6 -22 -14 -25 -18 -3 -3 -13 -9 -23 -13 -10 -4 -15
-11 -12 -17 9 -15 35 -12 35 5 0 8 12 17 28 21 45 10 52 13 52 24 0 13 -30 12
-55 -2z"/>
<path d="M586 388 c-23 -7 -56 -27 -80 -52 -51 -51 -91 -106 -77 -106 12 0 37
25 64 64 22 32 82 73 134 92 44 15 16 17 -41 2z"/>
<path d="M336 283 c-6 -14 -5 -15 5 -6 7 7 10 15 7 18 -3 3 -9 -2 -12 -12z"/>
<path d="M890 269 c0 -5 5 -7 10 -4 6 3 10 8 10 11 0 2 -4 4 -10 4 -5 0 -10
-5 -10 -11z"/>
<path d="M950 235 c0 -8 7 -15 16 -15 14 0 14 3 4 15 -7 8 -14 15 -16 15 -2 0
-4 -7 -4 -15z"/>
<path d="M950 186 c0 -8 -14 -26 -31 -40 -17 -14 -25 -26 -19 -26 15 0 60 50
60 66 0 8 -2 14 -5 14 -3 0 -5 -6 -5 -14z"/>
<path d="M417 88 c-28 -76 -30 -91 -16 -86 12 4 43 117 34 126 -1 2 -10 -16
-18 -40z"/>
<path d="M205 40 c-10 -11 -16 -22 -13 -25 3 -3 13 6 22 20 20 30 16 32 -9 5z"/>
</g>
</svg>
